HIERARCHY
ROOT Hips
{
 OFFSET 0.000000 0.000000 0.000000
 CHANNELS 6 Xposition Yposition Zposition Yrotation Xrotation Zrotation
 JOINT Chest
 {
  OFFSET 0.000000 9.585900 0.002600
  CHANNELS 3 Yrotation Xrotation Zrotation
  JOINT Chest2
  {
   OFFSET 0.000000 9.601200 -0.005300
   CHANNELS 3 Yrotation Xrotation Zrotation
   JOINT Chest3
   {
    OFFSET 0.000000 9.561800 0.000000
    CHANNELS 3 Yrotation Xrotation Zrotation
    JOINT Chest4
    {
     OFFSET 0.000000 9.552100 0.000000
     CHANNELS 3 Yrotation Xrotation Zrotation
     JOINT Neck
     {
      OFFSET 0.000000 14.453000 0.000000
      CHANNELS 3 Yrotation Xrotation Zrotation
      JOINT Head
      {
       OFFSET 0.000000 8.936500 -0.011300
       CHANNELS 3 Yrotation Xrotation Zrotation
       End Site
       {
        OFFSET 0.000000 17.073600 -0.006000
       }
      }
     }
     JOINT RightCollar
     {
      OFFSET -2.921100 9.558500 0.000000
      CHANNELS 3 Yrotation Xrotation Zrotation
      JOINT RightShoulder
      {
       OFFSET -13.519700 0.000000 0.000000
       CHANNELS 3 Yrotation Xrotation Zrotation
       JOINT RightElbow
       {
        OFFSET 0.000000 -29.696600 0.000000
        CHANNELS 3 Yrotation Xrotation Zrotation
        JOINT RightWrist
        {
         OFFSET 0.000000 -24.004700 0.000000
         CHANNELS 3 Yrotation Xrotation Zrotation
         End Site
         {
          OFFSET 0.000000 -17.728500 0.000000
         }
        }
       }
      }
     }
     JOINT LeftCollar
     {
      OFFSET 2.921100 9.558500 0.000000
      CHANNELS 3 Yrotation Xrotation Zrotation
      JOINT LeftShoulder
      {
       OFFSET 13.519700 0.000000 0.000000
       CHANNELS 3 Yrotation Xrotation Zrotation
       JOINT LeftElbow
       {
        OFFSET 0.000000 -29.696600 0.000000
        CHANNELS 3 Yrotation Xrotation Zrotation
        JOINT LeftWrist
        {
         OFFSET 0.000000 -24.004700 0.000000
         CHANNELS 3 Yrotation Xrotation Zrotation
         End Site
         {
          OFFSET 0.000000 -17.728500 0.000000
         }
        }
       }
      }
     }
    }
   }
  }
 }
 JOINT RightHip
 {
  OFFSET -7.771700 -0.012900 -0.001300
  CHANNELS 3 Yrotation Xrotation Zrotation
  JOINT RightKnee
  {
   OFFSET 0.000000 -40.869800 0.001200
   CHANNELS 3 Yrotation Xrotation Zrotation
   JOINT RightAnkle
   {
    OFFSET 0.000000 -39.717900 0.002100
    CHANNELS 3 Yrotation Xrotation Zrotation
    JOINT RightToe
    {
     OFFSET 0.000000 -4.965400 11.033500
     CHANNELS 3 Yrotation Xrotation Zrotation
     End Site
     {
      OFFSET 0.000000 -1.423100 5.872300
     }
    }
   }
  }
 }
 JOINT LeftHip
 {
  OFFSET 7.771700 -0.012900 -0.001300
  CHANNELS 3 Yrotation Xrotation Zrotation
  JOINT LeftKnee
  {
   OFFSET 0.000000 -40.869800 0.001200
   CHANNELS 3 Yrotation Xrotation Zrotation
   JOINT LeftAnkle
   {
    OFFSET 0.000000 -39.717900 0.002100
    CHANNELS 3 Yrotation Xrotation Zrotation
    JOINT LeftToe
    {
     OFFSET 0.000000 -4.965400 11.033500
     CHANNELS 3 Yrotation Xrotation Zrotation
     End Site
     {
      OFFSET 0.000000 -1.423100 5.872300
     }
    }
   }
  }
 }
}
MOTION
Frames: 12
Frame Time: 0.008333
-39.268362 52.863706 -5.215542 -176.715568 -16.484884 -2.048161 -0.102965 16.343572 0.582176 -0.013569 1.637618 0.071311 -0.020474 2.744379 0.114410 -0.048452 14.485483 0.608084 -1.067263 17.183541 4.343625 -2.137468 -7.533410 4.869022 2.582172 1.780790 1.359874 5.878267 -12.672984 -8.489768 -102.024628 -78.065729 138.330694 -6.916383 -29.110965 -14.375975 -6.188510 0.333516 -0.226365 -1.648919 -11.669318 11.994594 57.880381 -62.237581 -101.344829 2.155177 -11.482398 8.743446 1.562126 -62.017357 10.167371 177.206125 86.037938 174.984792 -13.348076 -23.202458 13.658727 -0.005645 -0.007423 -0.010093 5.430496 -60.473684 -4.812795 120.231192 78.038523 118.177927 -6.953137 -19.853572 -0.485968 0.043540 0.102192 0.015538
-39.269358 52.863589 -5.216797 -176.713270 -16.485676 -2.047486 -0.104803 16.347162 0.577849 -0.013279 1.637737 0.072245 -0.021046 2.743360 0.115549 -0.051307 14.495628 0.603266 -1.052750 17.194724 4.346788 -2.092001 -7.480223 4.855834 2.590585 1.780370 1.357300 5.873367 -12.666622 -8.494636 -102.086473 -78.060698 138.385160 -6.923177 -29.123360 -14.373577 -6.185722 0.327176 -0.229983 -1.662146 -11.693475 12.022465 57.886505 -62.223617 -101.336054 2.120502 -11.544874 8.760518 1.569212 -62.016059 10.161979 177.229703 86.038350 175.010512 -13.401869 -23.194501 13.679235 -0.005837 -0.010937 -0.010324 5.432736 -60.470826 -4.816535 120.218305 78.036482 118.165461 -6.954907 -19.858762 -0.485263 0.041319 0.106401 0.015646
-39.270055 52.863697 -5.218744 -176.711594 -16.489146 -2.048121 -0.106192 16.351483 0.577009 -0.013400 1.641392 0.069115 -0.021269 2.745439 0.115245 -0.051096 14.498965 0.602890 -1.023898 17.238942 4.341133 -2.085744 -7.489961 4.862225 2.594397 1.780599 1.351774 5.868388 -12.663046 -8.492812 -102.051187 -78.062169 138.345526 -6.935844 -29.135801 -14.377478 -6.184846 0.320717 -0.229676 -1.666426 -11.713174 12.047604 57.964123 -62.229734 -101.386499 2.139142 -11.550126 8.755109 1.577180 -62.012686 10.164065 177.349142 86.038861 175.137345 -13.451518 -23.182857 13.693588 -0.007548 -0.016848 -0.009722 5.437159 -60.464986 -4.818054 120.219091 78.039412 118.168567 -6.956679 -19.863442 -0.484141 0.041909 0.109664 0.016324
-39.269471 52.863617 -5.220077 -176.714141 -16.487037 -2.054787 -0.102203 16.356327 0.579103 -0.013189 1.642544 0.068905 -0.021101 2.747055 0.115154 -0.049333 14.492677 0.607050 -1.008393 17.267255 4.336145 -2.069662 -7.471590 4.859580 2.599947 1.803398 1.336377 5.859812 -12.675111 -8.486318 -102.065915 -78.060574 138.358483 -6.941985 -29.142280 -14.379873 -6.185756 0.320309 -0.232122 -1.656513 -11.745765 12.083298 57.961079 -62.194212 -101.389331 2.128140 -11.581247 8.760781 1.575856 -62.010279 10.129353 176.814071 86.032453 174.562377 -13.112509 -23.205904 13.647499 0.008088 -0.043918 -0.024455 5.432569 -60.466199 -4.808585 120.216155 78.038702 118.167539 -6.950371 -19.870697 -0.482792 0.037895 0.113750 0.014162
-39.268249 52.863447 -5.221127 -176.712902 -16.481341 -2.066349 -0.093581 16.366912 0.582521 -0.014109 1.642251 0.069747 -0.025698 2.740254 0.118315 -0.046466 14.497567 0.606688 -0.991044 17.287495 4.336076 -2.062460 -7.465368 4.861995 2.602868 1.800423 1.329196 5.857469 -12.676596 -8.482012 -102.092056 -78.056540 138.378114 -6.937093 -29.139018 -14.388048 -6.188243 0.311028 -0.232165 -1.654694 -11.752857 12.095876 57.981903 -62.196546 -101.405016 2.118914 -11.607759 8.769962 1.565835 -62.010581 10.094563 176.259466 86.026511 173.965431 -12.710909 -23.232218 13.587847 0.024694 -0.069619 -0.037430 5.418924 -60.470713 -4.790730 120.206584 78.037482 118.160116 -6.947305 -19.879471 -0.483324 0.034686 0.119104 0.014371
-39.269570 52.863248 -5.222409 -176.709732 -16.476285 -2.063680 -0.092196 16.372350 0.575949 -0.013917 1.642831 0.069408 -0.018856 2.753850 0.113399 -0.049416 14.490119 0.612163 -0.979043 17.305395 4.333136 -2.069530 -7.486658 4.874508 2.599190 1.792490 1.322507 5.860309 -12.675334 -8.482693 -102.107464 -78.065975 138.383192 -6.932019 -29.147699 -14.395030 -6.200189 0.305353 -0.230493 -1.638196 -11.771511 12.110209 58.020168 -62.192451 -101.431845 2.115439 -11.614274 8.771200 1.573494 -62.020148 10.117247 176.841793 86.032987 174.585657 -12.887053 -23.201362 13.604206 0.013049 -0.060077 -0.021624 5.444907 -60.472727 -4.810853 120.196237 78.040946 118.157525 -6.958550 -19.880909 -0.478341 0.040641 0.119903 0.015873
-39.272171 52.862910 -5.223410 -176.705599 -16.468341 -2.054024 -0.097191 16.369991 0.562740 -0.010956 1.652053 0.064278 -0.019888 2.752407 0.113593 -0.044455 14.488886 0.612942 -0.971955 17.320550 4.333425 -2.028643 -7.411515 4.852520 2.593321 1.783561 1.326357 5.856310 -12.662597 -8.489623 -102.134048 -78.078729 138.409770 -6.937403 -29.167156 -14.394764 -6.206467 0.304936 -0.233346 -1.619699 -11.788633 12.123152 58.065208 -62.196104 -101.469503 2.117949 -11.609721 8.775958 1.593979 -62.035258 10.138150 177.555268 86.039716 175.350852 -13.172739 -23.160260 13.636016 -0.003020 -0.046896 -0.005437 5.464180 -60.478533 -4.835970 120.185426 78.040127 118.144288 -6.960718 -19.879332 -0.473248 0.038652 0.118686 0.014998
-39.273076 52.862572 -5.224335 -176.703388 -16.458066 -2.054417 -0.097500 16.366261 0.559514 -0.011358 1.652211 0.063932 -0.019105 2.761041 0.109414 -0.042973 14.489456 0.606793 -0.956864 17.343275 4.336916 -2.005098 -7.374897 4.845732 2.590827 1.782951 1.325385 5.850000 -12.642835 -8.496767 -102.235180 -78.070122 138.509864 -6.940089 -29.182938 -14.390802 -6.211657 0.302355 -0.227284 -1.596032 -11.800721 12.131839 58.141190 -62.210960 -101.519814 2.136381 -11.595374 8.767665 1.596923 -62.043023 10.098725 177.049710 86.031905 174.815181 -12.897049 -23.176139 13.594129 0.008309 -0.066386 -0.018479 5.476042 -60.486100 -4.849147 120.165300 78.038869 118.126032 -6.956888 -19.884199 -0.468677 0.030836 0.123561 0.012406
-39.273009 52.862505 -5.226081 -176.702320 -16.451354 -2.060935 -0.094257 16.371875 0.559248 -0.012471 1.646475 0.067429 -0.017978 2.770766 0.106399 -0.043173 14.491459 0.600540 -0.938951 17.374362 4.335861 -1.998074 -7.379166 4.852446 2.591678 1.794746 1.311183 5.842955 -12.668427 -8.479290 -102.187290 -78.079180 138.459179 -6.924998 -29.180639 -14.401088 -6.212940 0.295015 -0.221447 -1.566392 -11.805147 12.133854 58.155783 -62.223099 -101.546098 2.136516 -11.612797 8.785034 1.597211 -62.045256 10.051007 176.333389 86.021660 174.054643 -12.518856 -23.202287 13.541101 0.025020 -0.087293 -0.032230 5.489339 -60.490490 -4.855192 120.151629 78.040361 118.120860 -6.956100 -19.888452 -0.466116 0.027723 0.126747 0.012739
-39.274251 52.862495 -5.228029 -176.699943 -16.445131 -2.060230 -0.095990 16.380028 0.553210 -0.010089 1.654719 0.064055 -0.016847 2.764969 0.107878 -0.042413 14.516948 0.585586 -0.924914 17.373641 4.347494 -1.999664 -7.405209 4.864896 2.590136 1.758591 1.324947 5.841718 -12.669838 -8.481423 -102.144214 -78.081935 138.412762 -6.925318 -29.184300 -14.402966 -6.207879 0.264381 -0.204626 -1.551468 -11.805879 12.138433 58.247131 -62.233413 -101.566307 2.153764 -11.604776 8.739259 1.603558 -62.052459 10.048426 176.406942 86.021026 174.137283 -12.546176 -23.192370 13.542349 0.022161 -0.080079 -0.022967 5.499150 -60.495883 -4.866189 120.145102 78.040234 118.117410 -6.952670 -19.888311 -0.467326 0.030098 0.124574 0.013790
-39.276650 52.862285 -5.229125 -176.689034 -16.432859 -2.054686 -0.104587 16.380892 0.539934 -0.012158 1.648785 0.066645 -0.014930 2.771428 0.105487 -0.043032 14.519949 0.582628 -0.916235 17.400465 4.344925 -1.985545 -7.385017 4.860397 2.588558 1.748494 1.325962 5.851370 -12.639809 -8.505783 -102.274371 -78.050050 138.529111 -6.926470 -29.182401 -14.407429 -6.206561 0.263250 -0.217690 -1.533026 -11.810847 12.158771 58.298624 -62.235680 -101.591342 2.157231 -11.621347 8.736778 1.620418 -62.067967 10.052460 176.894783 86.023498 174.661191 -12.759917 -23.168418 13.569004 0.010308 -0.061383 -0.005621 5.518498 -60.504827 -4.892251 120.140067 78.044847 118.111412 -6.951547 -19.889474 -0.462423 0.030350 0.125745 0.014998
-39.278609 52.862528 -5.231429 -176.682672 -16.427800 -2.050650 -0.105403 16.392088 0.529611 -0.005913 1.664382 0.060513 -0.025619 2.744466 0.116408 -0.043476 14.520988 0.581712 -0.908730 17.438479 4.337106 -1.967077 -7.293434 4.840749 2.596593 1.765121 1.308101 5.843766 -12.645755 -8.500860 -102.253877 -78.044053 138.504668 -6.920632 -29.201519 -14.405636 -6.207601 0.268367 -0.225270 -1.516684 -11.813290 12.162560 58.347683 -62.234864 -101.602209 2.161080 -11.627579 8.722621 1.631573 -62.076389 10.080663 177.549305 86.029145 175.362856 -13.058128 -23.137444 13.602539 -0.005252 -0.040918 0.012934 5.532700 -60.509487 -4.907512 120.131995 78.042258 118.104114 -6.962523 -19.884251 -0.459472 0.035864 0.120313 0.016806
